# xmcd
#
# Track frame offsets:
#	150
#	15625
#	33188
#	62100
#	81041
#	93618
#	110193
#	127868
#
# Disc length: 2082 seconds
#
# Revision: 1
# Processed by: cddbd v1.5.2PL0 Copyright (c) Steve Scherf et al.
# Submitted via: audiograbber 1.83.01
#
DISCID=60082008
DTITLE=Ruediger Carl, Burkhard Kunkel - Raubgold
DYEAR=2010
DGENRE=
TTITLE0=Angel Eyes
TTITLE1=Orfeo Negro
TTITLE2=Body and Soul
TTITLE3=Cry Me a River
TTITLE4=The Days of Wine and Roses
TTITLE5=Flamingo
TTITLE6=My Funny Valentine
TTITLE7=My One and Only Love
EXTD=Aufnahme Studio Augst 04/2010
EXTT0=
EXTT1=
EXTT2=
EXTT3=
EXTT4=
EXTT5=
EXTT6=
EXTT7=
PLAYORDER=
